<svg xmlns="http://www.w3.org/2000/svg" width="1200" height="630" viewBox="0 0 1200 630" fill="none">
  <defs>
    <linearGradient id="bg" x1="78" y1="42" x2="1090" y2="596" gradientUnits="userSpaceOnUse">
      <stop stop-color="#FAF6EF" />
      <stop offset="1" stop-color="#F1E9DA" />
    </linearGradient>
    <linearGradient id="panel" x1="0" y1="0" x2="0" y2="1">
      <stop stop-color="#15221D" />
      <stop offset="1" stop-color="#0D1613" />
    </linearGradient>
    <filter id="shadow" x="0" y="0" width="1200" height="630" filterUnits="userSpaceOnUse" color-interpolation-filters="sRGB">
      <feDropShadow dx="0" dy="18" stdDeviation="28" flood-color="#112019" flood-opacity="0.10"/>
    </filter>
  </defs>

  <rect width="1200" height="630" fill="url(#bg)" />

  <g opacity="0.22">
    <path d="M0 72H1200" stroke="#112019" stroke-opacity="0.10"/>
    <path d="M0 144H1200" stroke="#112019" stroke-opacity="0.10"/>
    <path d="M0 216H1200" stroke="#112019" stroke-opacity="0.10"/>
    <path d="M0 288H1200" stroke="#112019" stroke-opacity="0.10"/>
    <path d="M0 360H1200" stroke="#112019" stroke-opacity="0.10"/>
    <path d="M0 432H1200" stroke="#112019" stroke-opacity="0.10"/>
    <path d="M0 504H1200" stroke="#112019" stroke-opacity="0.10"/>
    <path d="M0 576H1200" stroke="#112019" stroke-opacity="0.10"/>
    <path d="M80 0V630" stroke="#112019" stroke-opacity="0.10"/>
    <path d="M160 0V630" stroke="#112019" stroke-opacity="0.10"/>
    <path d="M240 0V630" stroke="#112019" stroke-opacity="0.10"/>
    <path d="M320 0V630" stroke="#112019" stroke-opacity="0.10"/>
    <path d="M400 0V630" stroke="#112019" stroke-opacity="0.10"/>
    <path d="M480 0V630" stroke="#112019" stroke-opacity="0.10"/>
    <path d="M560 0V630" stroke="#112019" stroke-opacity="0.10"/>
    <path d="M640 0V630" stroke="#112019" stroke-opacity="0.10"/>
    <path d="M720 0V630" stroke="#112019" stroke-opacity="0.10"/>
    <path d="M800 0V630" stroke="#112019" stroke-opacity="0.10"/>
    <path d="M880 0V630" stroke="#112019" stroke-opacity="0.10"/>
    <path d="M960 0V630" stroke="#112019" stroke-opacity="0.10"/>
    <path d="M1040 0V630" stroke="#112019" stroke-opacity="0.10"/>
    <path d="M1120 0V630" stroke="#112019" stroke-opacity="0.10"/>
  </g>

  <circle cx="148" cy="112" r="116" fill="#B86634" fill-opacity="0.09" />
  <circle cx="1056" cy="96" r="118" fill="#2F7A6F" fill-opacity="0.08" />

  <g filter="url(#shadow)">
    <rect x="66" y="58" width="1068" height="514" rx="36" fill="rgba(255,253,248,0.56)" stroke="rgba(17,32,25,0.08)"/>
  </g>

  <rect x="96" y="94" width="74" height="74" rx="22" fill="#112019"/>
  <path d="M119 117L147 145" stroke="#FFFDF8" stroke-linecap="round" stroke-width="8"/>
  <path d="M147 117L119 145" stroke="#FFFDF8" stroke-linecap="round" stroke-width="8"/>
  <circle cx="160" cy="110" r="6" fill="#B86634"/>

  <rect x="188" y="106" width="286" height="28" rx="14" fill="rgba(17,32,25,0.06)"/>
  <text fill="#5C675F" font-family="Inter, Instrument Sans, Arial, sans-serif" font-size="15" font-weight="700" letter-spacing="0.16em">
    <tspan x="206" y="125">GO 原生 AGENT RUNTIME</tspan>
  </text>

  <text fill="#112019" font-family="Inter, 'PingFang SC', 'Microsoft YaHei', Arial, sans-serif" font-size="44" font-weight="700" letter-spacing="-0.04em">
    <tspan x="96" y="222">HopClaw</tspan>
  </text>

  <text fill="#112019" font-family="Inter, 'PingFang SC', 'Microsoft YaHei', Arial, sans-serif" font-size="64" font-weight="700" letter-spacing="-0.05em">
    <tspan x="96" y="316">Go 原生运行时</tspan>
    <tspan x="96" y="392">边界清晰</tspan>
    <tspan x="96" y="468">面向共建</tspan>
  </text>

  <text fill="#47524A" font-family="Inter, 'PingFang SC', 'Microsoft YaHei', Arial, sans-serif" font-size="27" font-weight="500">
    <tspan x="98" y="520">run、session、approval、audit、SKILL.md 兼容、</tspan>
    <tspan x="98" y="556">channel adapters，以及 browser / desktop capability hosts。</tspan>
  </text>

  <g>
    <rect x="720" y="126" width="348" height="308" rx="28" fill="url(#panel)"/>
    <rect x="720.75" y="126.75" width="346.5" height="306.5" rx="27.25" stroke="rgba(255,255,255,0.08)"/>
    <circle cx="756" cy="158" r="6" fill="#F26B5D"/>
    <circle cx="780" cy="158" r="6" fill="#E0AE47"/>
    <circle cx="804" cy="158" r="6" fill="#4AB387"/>
    <text fill="rgba(246,239,226,0.58)" font-family="'IBM Plex Mono', 'Courier New', monospace" font-size="14" letter-spacing="0.12em">
      <tspan x="834" y="163">HOPCLAW 启动</tspan>
    </text>

    <text fill="#58C395" font-family="'IBM Plex Mono', 'Courier New', monospace" font-size="15">
      <tspan x="752" y="220">$ go install .../hopclaw@latest</tspan>
    </text>
    <text fill="#F6EFE2" font-family="'IBM Plex Mono', 'Courier New', monospace" font-size="15">
      <tspan x="752" y="258">[config] using local.yaml</tspan>
      <tspan x="752" y="294">$ make run CONFIG=./local.yaml</tspan>
    </text>
    <text fill="#76CCB7" font-family="'IBM Plex Mono', 'Courier New', monospace" font-size="15">
      <tspan x="752" y="348">[ready] GET /healthz -&gt; ok</tspan>
      <tspan x="752" y="384">[skills] SKILL.md ready</tspan>
    </text>
  </g>

  <g>
    <rect x="720" y="458" width="170" height="42" rx="21" fill="rgba(17,32,25,0.06)" stroke="rgba(17,32,25,0.08)"/>
    <text fill="#112019" font-family="Inter, 'PingFang SC', 'Microsoft YaHei', Arial, sans-serif" font-size="17" font-weight="700" letter-spacing="0.06em">
      <tspan x="748" y="485">SKILL 兼容</tspan>
    </text>

    <rect x="900" y="458" width="168" height="42" rx="21" fill="rgba(184,102,52,0.11)" stroke="rgba(184,102,52,0.18)"/>
    <text fill="#B86634" font-family="Inter, 'PingFang SC', 'Microsoft YaHei', Arial, sans-serif" font-size="17" font-weight="700" letter-spacing="0.06em">
      <tspan x="926" y="485">首批共建者</tspan>
    </text>
  </g>

  <text fill="#112019" font-family="Inter, Instrument Sans, Arial, sans-serif" font-size="22" font-weight="700" letter-spacing="0.10em">
    <tspan x="98" y="603">HOPCLAW.CN · HOPCLAW.COM</tspan>
  </text>
</svg>
